<?xml version="1.0" encoding="UTF-8" standalone="no"?>
<svg width="385px" height="378px" viewBox="0 0 385 378" version="1.1" xmlns="http://www.w3.org/2000/svg" xmlns:xlink="http://www.w3.org/1999/xlink">
    <!-- Generator: Sketch 3.6.1 (26313) - http://www.bohemiancoding.com/sketch -->
    <title>Group 2</title>
    <desc>Created with Sketch.</desc>
    <defs>
        <linearGradient x1="50%" y1="0%" x2="50%" y2="100%" id="linearGradient-1">
            <stop stop-color="#C8C8C8" offset="0%"></stop>
            <stop stop-color="#979797" offset="100%"></stop>
        </linearGradient>
    </defs>
    <g id="Page-1" stroke="none" stroke-width="1" fill="none" fill-rule="evenodd">
        <g id="Group-2" transform="translate(1.000000, 1.000000)">
            <ellipse id="Oval-1" stroke="url(#linearGradient-1)" fill="#030D4F" cx="191.5" cy="188" rx="191.5" ry="188"></ellipse>
            <g id="Group" transform="translate(49.000000, 76.000000)" fill="#FFFFFF">
                <g id="714-camera@2x">
                    <g id="_x37_14-camera_x40_2x.png">
                        <path d="M268.357143,31 L227.071429,31 C206.428571,31 196.107143,0 175.464286,0 L144.5,0 L113.535714,0 C92.8928571,0 82.5714286,31 61.9285714,31 L20.6428571,31 C9.24283929,31 0,40.2535 0,51.6666667 L0,196.333333 C0,207.7465 9.24283929,217 20.6428571,217 L268.357143,217 C279.757161,217 289,207.7465 289,196.333333 L289,51.6666667 C289,40.2535 279.757161,31 268.357143,31 L268.357143,31 Z M278.678571,196.333333 C278.678571,202.037333 274.054571,206.666667 268.357143,206.666667 L20.6428571,206.666667 C14.9454286,206.666667 10.3214286,202.037333 10.3214286,196.333333 L10.3214286,51.6666667 C10.3214286,45.9626667 14.9454286,41.3333333 20.6428571,41.3333333 L59.2037143,41.3333333 L61.9285714,41.3333333 C87.7321429,41.3333333 98.0535714,10.3333333 113.535714,10.3333333 L144.5,10.3333333 L176.341607,10.3333333 C192.262411,10.3333333 202.878,41.3333333 229.414393,41.3333333 L232.216661,41.3333333 L268.357143,41.3333333 C274.054571,41.3333333 278.678571,45.9626667 278.678571,51.6666667 L278.678571,196.333333 L278.678571,196.333333 Z M227.071429,56.8333333 C221.374,56.8333333 216.75,61.4626667 216.75,67.1666667 C216.75,72.8706667 221.374,77.5 227.071429,77.5 C232.768857,77.5 237.392857,72.8706667 237.392857,67.1666667 C237.392857,61.4626667 232.768857,56.8333333 227.071429,56.8333333 L227.071429,56.8333333 Z" id="Shape"></path>
                    </g>
                </g>
                <g id="720-keyhole-toolbar@2x" transform="translate(87.000000, 71.000000)">
                    <g id="_x37_20-keyhole-toolbar_x40_2x.png">
                        <path d="M73.8181818,38.3636364 C73.8181818,30.0058409 66.7342727,23.2272727 58,23.2272727 C49.2657273,23.2272727 42.1818182,30.0058409 42.1818182,38.3636364 C42.1818182,43.5478409 44.9104545,48.1139773 49.0627273,50.8410455 L42.1818182,83.7727273 L73.8181818,83.7727273 L66.9372727,50.8410455 C71.0895455,48.1139773 73.8181818,43.5478409 73.8181818,38.3636364 L73.8181818,38.3636364 Z M64.9072727,45.9318182 L61.1293636,45.9318182 L67.5568182,78.7272727 L48.4431818,78.7272727 L54.8706364,45.9318182 L51.0927273,45.9318182 C48.8808182,44.0826591 47.4545455,41.3934318 47.4545455,38.3636364 C47.4545455,32.7909318 52.1762727,28.2727273 58,28.2727273 C63.8237273,28.2727273 68.5454545,32.7909318 68.5454545,38.3636364 C68.5454545,41.3934318 67.1191818,44.0826591 64.9072727,45.9318182 L64.9072727,45.9318182 Z M58,0 C25.9681818,0 0,24.8488636 0,55.5 C0,86.1511364 25.9681818,111 58,111 C90.0318182,111 116,86.1511364 116,55.5 C116,24.8488636 90.0318182,0 58,0 L58,0 Z M58,103.954545 C28.8787273,103.954545 5.27272727,81.3660455 5.27272727,53.5 C5.27272727,25.6339545 28.8787273,3.04545455 58,3.04545455 C87.1212727,3.04545455 110.727273,25.6339545 110.727273,53.5 C110.727273,81.3660455 87.1212727,103.954545 58,103.954545 L58,103.954545 Z" id="Shape"></path>
                    </g>
                </g>
            </g>
        </g>
    </g>
</svg>